<?xml version="1.0" encoding="utf-8"?>
<!-- Generator: Adobe Illustrator 28.1.0, SVG Export Plug-In . SVG Version: 6.00 Build 0)  -->
<svg version="1.1" id="Layer_1" xmlns="http://www.w3.org/2000/svg" xmlns:xlink="http://www.w3.org/1999/xlink" x="0px" y="0px"
	 viewBox="0 0 153.02 284.78" style="enable-background:new 0 0 153.02 284.78;" xml:space="preserve">
<style type="text/css">
	.st0{fill:#BFD09A;}
	.st1{fill:#D9E4B4;}
	.st2{fill:#C4D5A4;}
	.st3{fill:#C1D09B;}
	.st4{fill:#A9C086;}
	.st5{fill:#9FB181;}
	.st6{fill:#A8BF90;}
	.st7{fill:#7C9B66;}
	.st8{fill:#64855C;}
	.st9{fill:#1C4623;}
	.st10{fill:#B5B799;}
	.st11{fill:#95AD79;}
	.st12{fill:#BFCF9A;}
	.st13{fill:#84A170;}
	.st14{fill:#B4C68C;}
	.st15{fill:#4D7544;}
	.st16{fill:#9AAF69;}
	.st17{fill:#9AB07D;}
	.st18{fill:#496234;}
	.st19{fill:#5A755D;}
	.st20{fill:#C0B9A2;}
	.st21{fill:#6D8059;}
	.st22{fill:#9E997D;}
	.st23{fill:#5B8253;}
	.st24{fill:#6B7F52;}
	.st25{fill:#4D6438;}
	.st26{fill:#56764A;}
	.st27{fill:#A3BD89;}
	.st28{fill:#96A882;}
	.st29{fill:#9AAF80;}
	.st30{fill:#B4BD9D;}
	.st31{fill:#95946D;}
	.st32{fill:#9AA987;}
	.st33{fill:#82986C;}
	.st34{fill:#495D2F;}
	.st35{fill:#334F2F;}
	.st36{fill:#85A275;}
	.st37{fill:#C3C2A4;}
	.st38{fill:#809A63;}
	.st39{fill:#789779;}
	.st40{fill:#293A24;}
	.st41{fill:#5A703F;}
	.st42{fill:#638242;}
	.st43{fill:#9DAD9A;}
	.st44{fill:#A1B391;}
	.st45{fill:#526841;}
	.st46{fill:#5E6343;}
	.st47{fill:#424D3D;}
	.st48{fill:#E4EAC5;}
	.st49{fill:#D9E3B8;}
	.st50{fill:#849F6C;}
	.st51{fill:#A5BEA4;}
	.st52{fill:#7B9575;}
	.st53{fill:#706251;}
	.st54{fill:#ABC0A0;}
</style>
<g>
	<path class="st0" d="M67.64,253.05c5.14-3.72,8.02-9.34,11.76-14.22c2.41-3.14,5.2-5.97,7.01-9.65c4.02-8.17,4.1-16.67,2.8-25.31
		c-0.89-5.94-1.37-12-3.63-17.67c-4.28,2.02-5.49,5.85-5.92,10.11c-0.26,2.61-0.41,5.23-0.2,7.45c0.06-2.7-1.29-5.7-0.36-8.88
		c0.21-0.73,0.06-1.55-0.16-2.29c-0.41-1.44-0.38-3.27-2.32-3.62c-1.69-0.3-2.5,1.1-3.3,2.24c-2.16,3.04-3.45,6.61-5.74,9.58
		c-1.14,3.34-2.61,6.62-1.7,10.33c0.08,0.33-0.39-0.66-0.81-0.23c-0.44,0.31-0.81,0.71-0.89,1.23c-0.85,5.86-1.87,11.69-3.25,17.46
		c0.73,2.35,1.76,4.47,3.95,5.89c2.97,1.92,3.65,4.59,1.84,7.58c-1.61,2.67-0.66,5.47-0.8,8.21
		C65.88,252.14,66.63,252.86,67.64,253.05z"/>
	<path class="st1" d="M123.38,120.69c-3.76-7.34-7.6-14.63-13.71-20.38c-1.83,0.73-2.55-0.76-3.41-1.78
		c-6.27-7.39-14.87-11.06-23.37-15c-3.71-1.72-8.12-2.7-10.21-6.93c-6.95-4.57-14.16-8.53-22.63-9.5c-2.79-0.32-5.57-0.62-8.36-0.92
		c-2.23,0.32-2.51,1.58-1.43,3.27c0.91,1.42,2.05,2.87,3.65,3.35c3.66,1.1,4.91,3.84,5.54,7.16c0.16,0.37,0.38,0.68,0.67,0.96
		c5.24,3.72,11.65,3.95,17.54,5.59c6.75,1.87,12.53,5.33,18.25,8.97c2.18,1.39,4.35,2.69,6.68,3.75c5.12,4,10.33,7.9,14.77,12.69
		c1.73,1.56,3.43,3.07,5.97,3.23c1.35,0.09,2.18,1.28,3.01,2.27C118.18,119.61,120.53,120.69,123.38,120.69z"/>
	<path class="st2" d="M127.56,21.97c6.68,0.34,13.38,0.13,20.03,1.07c1.41,0.2,2.88,0.14,4.13-0.64c2.43-1.52,1.01-2.05-0.69-2.46
		c-4.75-0.11-8.89-2.46-13.35-3.62c-10.74-2.79-21.48-5.5-32.71-4.51c-4.57,0.4-9.1,1.34-13.7,1.52
		C80.61,16.2,70.12,19.57,59.8,23.55c-4.71,1.82-9.93,2.25-14.47,4.7c2.72,3.99,3.46,4.26,7.96,2.59c2.43-0.9,4.81-1.81,7.5-1.38
		c1.91,0.31,3.55-0.65,5.07-1.6c2.9-1.8,6.1-2.29,9.3-1.77c4.54,0.74,8.13-0.89,11.28-3.78c1.72-1.57,3.33-2.08,5.59-1.29
		c5.66,1.98,11.4,2.03,16.95-0.33c2.94-1.25,5.87-1.84,9.02-1.6c2.19,0.17,4.36,0.22,6.5-0.51c2-0.67,3.82-0.35,5.17,1.41
		C129.37,21.11,127.34,20.36,127.56,21.97z"/>
	<path class="st3" d="M15.36,269.52c4.82-6.73,5.47-14.82,7.22-22.53c1.86-8.2,4.74-15.98,8.84-23.3c0.35-0.64,1.09-1.06,1.64-1.58
		c0.55-0.74,0.52-1.47,0.02-2.22c-2.43-0.51-3.84,0.9-5.07,2.68c-1.33,1.91-1.97,4.18-3.71,7.19c-0.37-2.64,0.14-4.12,0.81-5.5
		c1.31-2.69,2.02-5.58,2.95-8.39c0.37-1.12,0.45-2.51-0.81-3.08c-1.45-0.66-2.37,0.48-3.15,1.57c-0.15,0.21-0.26,0.45-0.35,0.69
		c-2.73,8.04-7.92,14.95-10.56,23.06c-0.74,2.28-0.67,4.78-1.87,7.27c-2.22-2.08-2.11-4.58-2.43-6.93c-0.2-1.45,0.44-3.18-1.32-4.14
		c-1.72,3.04-1.9,6.41-1.21,9.61c0.72,3.33,1.21,6.52,0.41,9.88c-0.32,1.36-0.18,2.83-0.05,4.24c0.22,2.22,1.13,4.18,3.43,4.63
		c2.57,0.5,1.91-2.2,2.77-3.42c0.28-0.4,0.44-0.89,0.78-1.26C11.43,262.65,11.86,265.66,15.36,269.52z"/>
	<path class="st4" d="M67.64,253.05c-1.3-3.61-1.66-7.33,0.43-10.65c1.72-2.73,0.59-5.24-1.08-6.47c-2.2-1.61-3.72-3.61-5.41-5.57
		c-2.35,1.16-2.46,3.83-4.4,6.56c0.38-5.56-0.69-10.15-0.62-14.84c0.08-5.43,0.15-10.86,0.17-16.29c0-1.41,0.11-2.87-0.8-4.11
		c-2.16-0.45-1.8,1.36-1.97,2.41c-0.33,2.02-0.24,4.1-0.18,6.15c0.09,2.98,0.11,5.5-4.09,5.76c-2.37,0.15-3.35,2.61-3.64,4.89
		c-0.34,2.68-0.35,5.38,0.71,7.96c1.27,2.89,2.41,6.27,4.17,8.42c3.27,3.99,4.26,7.85,3.36,12.6c1.6,0.48,1.85,1.52,1.87,3.16
		c0.04,3.25,0.44,6.53,3.32,8.78c0.57,0.17,1.11,0.15,1.61-0.21C62.69,258.3,66.17,256.45,67.64,253.05z"/>
	<path class="st1" d="M64.56,102.18c2.44,1.44,4.9,2.83,7.8,3.11c5.99-0.05,11.95-0.59,17.95-0.53c3.39,0.04,4.09-1.97,2.21-5.13
		c-9.14-6.47-19.19-10.97-29.99-13.87c-1-0.27-1.97-0.63-3.01-0.72c-5.76-0.47-7.14,1.16-5.94,7.01c1.31,2.7,2.18,5.44,6.26,5.63
		C61.4,97.77,63.71,99.89,64.56,102.18z"/>
	<path class="st5" d="M15.36,269.52c-1.25-4-3.75-7.83-0.87-12.75c-1.89,0.91-1.66,2.24-2.35,2.96c-0.68,0.71-0.26,2.46-1.59,2.33
		c-1.3-0.13-2.08-1.4-2.68-2.57c-0.11-0.22-0.2-0.52-0.15-0.75c1.74-7.83-1.23-15.56-0.44-23.37c0.03-0.34,0.38-0.65,0.58-0.97
		c5.73-8.69,8.91-18.63,13.68-27.8c2.51-4.83,6-8.56,9.93-12.19c3.64-3.36,8.2-5.57,11.36-9.5c2.33-2.9,5.62-2.74,8.9-2.52
		c2.68-2.59,2.74-3.96,0.37-7.53c-4.57-1.03-7.6,2.14-11.02,4.13c-3.18,1.86-5.38,5.05-8.71,6.75c-0.88,1.08-1.63,2.3-2.65,3.21
		c-5.84,5.18-9.76,11.56-12.05,18.97c-0.5,1.63-1.19,3.12-2.28,4.42c-7.64,9.19-9.3,20.41-10.44,31.69
		c-0.41,4.04-0.57,8.21,0.24,12.3c1.77-2.48-0.11-5.19,0.61-7.4c-0.17,3,0.49,6.31,0.33,9.65c-0.09,1.87,0.38,3.67,1.54,5.03
		c1.12,1.32,1.77,2.67,2.18,4.35c0.54,2.26,1.98,3.85,4.58,3.86C14.97,271.15,15.43,270.44,15.36,269.52z"/>
	<path class="st6" d="M131.47,20.58c-2.19-3.52-5.16-4.42-8.82-2.46c-0.96,0.51-1.74,0.1-2.61,0.05c-4.26-0.25-8.28,0.02-12.38,1.88
		c-4.95,2.24-10.32,1.95-15.49-0.08c-2.26-0.89-4.11-1.11-6.13,1.25c-2.63,3.08-6.1,4.89-10.65,3.85c-3.93-0.9-7.68,0.33-11.08,2.47
		c-0.98,0.62-1.87,1.4-3.17,1.06c-2.5-0.65-4.93-0.37-7.08,1.04c-3.39,2.21-6.14,1.04-8.74-1.38c-3.38,2.42-7.9,3.09-10.46,6.78
		c0.36,0.4,0.88,0.81,1.32,0.6c5.83-2.76,12.71-0.33,18.46-3.77c1.18-0.71,2.77-1.4,4.39-0.88c3.78,2.67,7.44,2.16,11.07-0.36
		c2.14-1.5,4.32-1.53,6.94-0.87c4.47,1.13,8.97,1.18,12.3-3.03c1.16-1.47,2.69-2.2,4.29-0.65c1.3,1.26,2.97,0.43,4.33,1.07
		c4.71-1.2,9.41-2.4,14.12-3.6c-0.59-0.72-1.29-0.73-2.06-0.35c4.09-2.11,8.03-3.88,12.99-2.11
		C125.54,21.98,128.61,20.53,131.47,20.58z"/>
	<path class="st7" d="M97.97,27.14c-1.5-1.11-3.43-1.26-4.87-2.79c-1.82-1.94-3.76,0.33-4.47,1.42c-3.19,4.85-7.67,4.12-11.92,2.83
		c-2.56-0.78-4.61-0.63-6.48,0.8c-3.68,2.84-7.29,3.24-11.12,0.48c-5.34,1.57-10.36,3.94-15.46,6.11c-1.15,0.49-2.18,0.62-3.33,0.21
		c-1-0.35-2.43-0.65-2.92,0.15c-2.23,3.67-7.89,2.87-9.42,7.42c-0.25,0.75-1.15,1.35-1.68,2.08c-0.77,1.04-1.54,2.08-2.31,3.12
		c2.22,1.41,4.07,0,5.61-1.13c5.46-4.02,11.79-6.62,17.95-8.67c4.99-1.67,10.31-4.45,16.1-3.08C75.22,33.6,86.72,30.86,97.97,27.14z
		"/>
	<path class="st8" d="M47.69,229.41c-0.51-2.77-1.03-5.56-0.58-8.39c0.42-2.68,1.05-5.08,4.8-4.22c1.86,0.43,2.8-0.37,2.78-2.68
		c-0.03-4.18-0.47-8.44,0.85-12.55c1.71-1.69,1.34-3.68,0.81-5.69c-2.12-2.23-3.29,0.03-4.74,0.99c-2.76,3.52-6.58,6.19-8.57,10.36
		c1.68,5.2,1.97,10.58,2.06,15.98c0.01,0.66,0.36,1.95-0.69,1.82c-3.65-0.45-3.37,2.4-3.99,4.47c-0.92,3.06-2.28,5.98-2.9,9.14
		c0.99,3.38,1.98,6.77,2.96,10.15c2.04-0.24,1.35-1.83,1.41-2.97c0.13-2.31,0.04-4.62,0.26-6.94c0.3-3.13,1.24-5.77,4.36-7.17
		C47.43,231.29,48.49,230.78,47.69,229.41z"/>
	<path class="st9" d="M37.52,238.63c2.57-3.27,3.51-7.23,4.33-11.13c0.39-1.84,0.92-2.36,2.42-1.59c1.24,0.64,1.73,0.81,1.85-0.88
		c0.41-5.95-0.72-11.76-1.58-17.59c-0.04-0.26-0.84-0.41-1.28-0.61c-1.31-0.6-2.5,0.01-3.06,0.95c-2.42,4.06-5.8,7.56-7.25,12.2
		c0.04,0.71,0.08,1.41,0.11,2.12C34.55,227.61,36.03,233.12,37.52,238.63z"/>
	<path class="st10" d="M64.37,128.46c-10.47-12.89-21.3-25.48-31.28-38.78c-3.31-4.41-6.65-8.85-10.05-13.21
		c-1.07-1.38-3.3-2.82-1.51-5.19c0.03-0.26,0.06-0.64-0.11-0.72c-3.78-1.78-5.39-5.5-7.72-8.58c-0.38-0.14-0.66-0.03-0.85,0.33
		c2.03,7.17,6.2,13.25,10.41,19.18c6.39,8.99,13.34,17.6,20.05,26.36c2.1,2.74,4.21,5.46,6.32,8.19c2.45,0.66,2.69,2.84,3.28,4.78
		c0.44,1.71,1.52,3.18,1.79,4.95c0.11,0.88,0.16,1.78,0.66,2.56c3.16-1.8,4.58,1.72,6.98,2.29
		C63.66,130.51,64.62,130.05,64.37,128.46z"/>
	<path class="st11" d="M123.38,120.69c-3.23-1.39-5.91-3.46-8.56-5.81c-1.83-1.63-5.16-1.26-6.89-3.63
		c-0.83-0.75-1.97-0.26-2.91-0.78c-5.65-3.12-5.66-3.1-9.49,2.92c7.68,2.12,12.86,7.62,17.94,13.26c0.76,0.85,1.45,1.84,2.77,1.88
		c2.39-4.54-2.11-6.19-4.07-9.52c2.87,2.34,4.68,5.02,7.23,6.89c3.48,2.62,6.01,5.72,5.25,10.47c3.68,1.1,4.21,0.71,3.46-2.86
		C127.16,129.01,126.17,124.51,123.38,120.69z"/>
	<path class="st12" d="M54.54,92c-1.4-1.66-0.7-3.94-0.05-5.05c1.01-1.73,3.85-1.36,5.44-0.85c9.6,3.12,19.65,5.24,27.81,11.81
		c1.18,0.95,2.69,1.5,4.04,2.23c0.71-0.29,1.36-0.65,1.53-1.5c-6.45-3.81-12.72-7.95-19.4-11.29c-3.83-1.92-8.25-2.9-12.52-3.64
		c-3.96-0.69-7.64-1.99-11.32-3.45c-2.37-0.55-4.52-1.72-6.84-2.42c-4-1.21-4.87-0.42-4.08,3.72c0.21,1.11,0.92,2.13,0.65,3.33
		c0.62,1.37,1.9,1.8,3.17,2.25c3.02,0.75,4.67,3.79,7.68,4.58C51.95,92.07,53.15,93.22,54.54,92z"/>
	<path class="st13" d="M47.69,229.41c-0.14,0.35-0.21,0.95-0.42,1c-6.19,1.61-5.86,6.71-6.38,11.49c-0.25,2.3,0.99,4.67-0.4,6.88
		c1.22,5.25,3.03,10.28,5.85,14.91c1.44-0.42,1.59-1.51,1.4-2.76c-0.53-3.56-1.06-7.15-2.3-10.53c-0.68-1.84-1.45-3.61-1.12-5.58
		c0.47-2.82,3.58-0.44,4.39-2.42c1.96,3.51,0.39,8.11,4.24,10.63c1.66-0.56,2.25-1.63,1.56-3.29c-0.28-1.38,0.56-2.45,0.93-3.67
		c0.69-2.29,2.75-4.92-1.77-5.94c-1.23-0.28-2.56-2.25-2.42-3.69C51.53,233.2,48.83,231.75,47.69,229.41z"/>
	<path class="st14" d="M93.31,98.65c-0.73,0.28-1.24,0.78-1.53,1.5c0.95,0.58,1.69,1.22,1.04,2.49c-0.45,0.87-1.06,1.63-2.09,1.33
		c-1.94-0.56-3.9,0.53-5.73-0.04c-4.46-1.41-8.43,0.89-12.64,1.36c7.72,2.7,15.44,5.39,23.16,8.09c1.28-0.93,3.07-0.85,3.4-3.37
		c0.29-2.16,3-1.64,3.83-0.21c1.43,2.47,3.14,2.07,5.17,1.45C103.65,106.35,98.34,102.66,93.31,98.65z"/>
	<path class="st15" d="M52.94,252.88c-2.4-3.93-2.01-8.66-3.84-13.41c-0.92,2.31-1.79,3.97-4.47,2.66
		c-1.59-0.78-1.45,0.65-1.57,1.98c-0.38,4.14,2.46,7.43,2.69,11.33c0.16,2.76,1.99,5.4,0.58,8.26c1.42,2.78,1.85,6.03,3.93,8.51
		c2.07-0.2,1.56-1.95,1.92-3.18c0.07-3.95,0.91-7.83,1.26-11.75C53.57,255.76,54.05,254.24,52.94,252.88z"/>
	<path class="st16" d="M68.12,200.89c3.19-2.15,3.6-6.13,5.83-8.89c0.75-0.93,1.09-2.75,2.66-2.39c1.54,0.36,0.73,2.28,1.45,3.31
		c0.07,0.1,0.13,0.27,0.09,0.37c-1.42,4.09,0.56,7.94,1.21,11.99c0.42-2.53,1-5.05,1.21-7.6c0.33-3.91,0.64-7.72,4.46-10.07
		c0.34-0.21,0.37-0.93,0.54-1.42c-1.03-3.91-2.07-7.82-3.1-11.73c-1.98,4.05-4.83,7.43-7.81,10.79c-2.98,3.35-4.25,7.84-6.58,11.66
		C67.41,198.01,66.97,199.58,68.12,200.89z"/>
	<path class="st17" d="M39.81,84.89c1.01-0.16,1.95-0.6,1.03-1.68c-1.33-1.56-0.61-3.35-1.36-5.2c2.86,0.25,4.98,1.38,7.2,2.17
		c1.11,0.4,2.24,1.53,3.4,0.08c0,0-0.02,0-0.02,0c-1.03-6.32-4.19-7-10.69-8.45c-2.72-0.6-5.95-1.02-7.43-4.12
		c1.04-1.84,4,0.56,4.26-2.29c-4.09-1.62-8.34-0.73-12.52-0.81c-0.84,1.77,0.41,2.86,1.6,3.39c2.54,1.13,4.19,3.47,6.49,4.64
		c2.2,1.12,4.4,2.35,6.71,3.28c-5.83-2.08-5.83-2.07-7.87,2.04C33.67,80.26,36.74,82.57,39.81,84.89z"/>
	<path class="st18" d="M55.6,125.44c0.34-2-1.59-3.12-1.87-4.87c-2.63,0.4-1.1,2.19-1.16,3.46c0.49,8.74-4.24,15.62-8.11,22.8
		c-0.27,1.2,0.7,1.49,1.28,1.07c2.04-1.5,3.31-0.21,4.65,1.01c2.02,2.03,3.21,1.02,3.47-1.23c0.26-2.21,1.18-3.85,2.82-5.22
		c0.52-2.01-0.29-3.79-0.98-5.59C54.77,133.06,55.25,129.25,55.6,125.44z"/>
	<path class="st19" d="M37.46,167.24c0.12,3.81-2.42,7.04-2.36,10.84c1.77,2.11,3.86,1.86,5.8,0.49c2.41-1.71,5.49-1.95,7.8-3.83
		c0.89-0.72,1.94-0.37,2.93-0.06c2.67-0.17,5.28-0.43,6.36-3.49c-0.04-0.44-0.23-0.8-0.55-1.09c-3.39-1.69-6.76-3.55-10.58-1.11
		c-0.45,0.51-0.51,1.12-0.59,1.78c-0.07,0.52-0.11-0.06-0.17-0.09c-2.21-1.19-2.07,1.84-3.53,1.97
		C39.98,171.66,41.23,167.08,37.46,167.24z"/>
	<path class="st20" d="M8.56,43.23c-2-9.7-4.47-19.31-4.65-29.33c-0.03-1.83,0.38-5.54-2.44-5.13c-2.48,0.36-1.14,3.65-0.87,5.63
		c1.3,9.43,2.91,18.8,5.5,27.98c0.17,0.6,0.51,1.14,0.77,1.71C7.36,43.65,8.02,43.55,8.56,43.23z"/>
	<path class="st21" d="M91.27,13.32c1.78,1.71,3.74,0.32,5.48,0.08c15.38-2.19,30.12,0.79,44.8,4.97c3.02,0.86,5.99,3.17,9.48,1.57
		c-4.96-1.83-9.92-3.65-14.88-5.48c-8.96-2.06-17.84-4.75-27.23-3.59C102.92,10.8,97.08,11.92,91.27,13.32z"/>
	<path class="st22" d="M81.05,168.24c-0.73-9.05-4.13-17.29-7.63-25.51c-2.59-2.18-2.64,0.18-3.14,1.75
		c1.06,7.47,0.49,14.74-2.78,21.66c-0.03,0.46,0.17,0.78,0.59,0.96c1.03,0.29,1.97-0.02,2.88-0.45c2.49-1.85,1.5-5.53,3.87-7.49
		c1.25,0.65,1.44,2.08,2.34,2.92c1.27,1.41,1.35,3.24,1.76,4.95C79.22,168.2,79.38,169.51,81.05,168.24z"/>
	<path class="st23" d="M50.76,148.62c-1.99-0.61-0.73-2.36-1.06-3.46c-2.19-0.46-2.76,3.47-5.24,1.67
		c-3.02,4.22-4.06,9.21-5.49,14.04c-0.29,0.6-0.57,1.38,0.23,1.6c1.18,0.32,1.62-1.07,2.56-1.43c1.09-0.69,2-1.58,2.8-2.58
		c0.45-0.52,0.94-0.84,1.58-0.25c1.78,1.66,2.83,0.57,3.31-1.11C50.23,154.35,51.36,151.61,50.76,148.62z"/>
	<path class="st24" d="M68.12,200.89c0.26-2.88,0.94-5.55,3.32-7.5c0.46-0.37,0.94-1.02,0.97-1.56c0.19-4.17,3.34-6.49,5.84-9.07
		c2.33-2.4,4.09-4.87,4.22-8.29c0.23-1.86-0.65-3.52-0.94-5.28c-2.22,0.42-2.33,2.28-2.33,3.87c0.02,3.77-2.41,6.46-3.92,9.53
		c-0.68,1.38-2.01,2.55-3.94,2.02c-4.97,8.14-8.35,16.62-5.77,26.39c0.06,0.11,0.09,0.26,0.18,0.33c0.15,0.11,0.33,0.18,0.5,0.26
		C66.22,207.91,67.54,204.47,68.12,200.89z"/>
	<path class="st25" d="M63.65,36.08c-0.51-1.36-2.98-1.91-4.76-1.31c-3.03,1.02-5.81,3.18-9.36,2.18c-0.49-0.14-1.22,0.28-1.74,0.6
		c-5.91,3.61-12.67,5.56-18.4,9.5c-1.64,1.13-3.42,1.76-5.39,1.91c0,0-0.04,0-0.04,0c-0.75,1.05-1.85,1.8-2.63,2.75
		c-1.25,1.52-0.14,1.54,1.08,1.12c2.56-1.47,5.18-2.86,7.68-4.42C40.42,41.99,52.32,39.81,63.65,36.08z"/>
	<path class="st26" d="M30.6,77.94c2.06-3.2,4.78-2.63,7.67-1.39c0.77,0.33,1.67,0.38,2.63,0.25c-2.95-1.11-5.82-3-7.84-4.76
		c-3.02-2.63-7.77-3.2-9.39-7.45c-2.03-0.33-4.07-0.65-6.1-0.98c-1.17,2.35,0.34,3.69,2.07,4.53c2.45,1.2,3.9,3.69,6.51,4.62
		c0.93,0.33,0.59,1.28,0.54,2.03C27.99,75.84,29.29,76.89,30.6,77.94z"/>
	<path class="st27" d="M26.3,45.85c0.61-0.46,1.26-0.87,1.82-1.39c1.86-1.74,2.99-3.74,6.34-4.25c2.47-0.37,4.27-4.83,8.13-2.38
		c5.11-3.47,11.17-4.99,16.52-7.96c-2.61-0.54-4.68,1-6.9,1.86c-2.36,0.91-4.37,1.79-7.25,0.96c-2.07-0.6-4.83,0.83-7.17,1.65
		c-0.97,0.34-1.86,0.78-2.91,0.69C30.5,37.43,28.79,41.95,26.3,45.85z"/>
	<path class="st28" d="M55.61,279.36c1.88,4.7,6.42,7.19,9.27,11.1c0.94,1.29,2.54,2.1,3.83,3.12c-0.1-2.64-0.48-5.77-1.66-8.79
		c-1.71-2.23-3.52-4.36-5.74-6.12c-0.79-0.47-1.3-1.22-1.92-1.86c-0.98-0.99-2.07-2.43-3.54-1.48
		C54.32,276.3,54.54,277.94,55.61,279.36z"/>
	<path class="st12" d="M36.19,65.4c-1.81,1.88-3.87-0.41-5.9,0.26c0.47,1.53,0.87,2.94,1.34,4.32c0.32,0.94,0.91,1.57,2.02,1.2
		c0.74-0.25,1.5-0.54,2.2-0.04c1.45,1.03,1.86,4.57,4.94,1.26c1.11-1.2,7.7,3.85,8.42,6.26c0.18,0.62,0.21,1.25,0.85,1.61
		c0.05-3.95-1.16-6.83-5.48-8.05c-3.16-0.9-4.37-4.07-2.88-6.03C40,64.9,38.05,65.42,36.19,65.4z"/>
	<path class="st29" d="M61.06,279.32c2.1,1.7,3.12,4.6,5.99,5.46c0.3-2.44-1.23-4.42-1.75-6.66c-1.14-4.86-2.63-9.63-3.98-14.44
		C55.92,270.48,55.88,272.59,61.06,279.32z"/>
	<path class="st30" d="M72.67,76.59c-1.39,2.92,1.14,3.37,2.77,4.22c6.14,3.2,12.66,5.6,18.71,9.06c4.91,2.81,9.16,6.16,12.49,10.7
		c1.15,1.57,2.3,3.06,3.03-0.27c-7.58-7.93-16.46-13.84-26.85-17.48C79.02,81.49,76.28,78.31,72.67,76.59z"/>
	<path class="st31" d="M22.4,52.84c-0.21-0.33-1.72,0.16-0.69-0.91c0.88-0.91,2.13-1.49,2.24-2.96c-0.33,0.18-0.68,0.32-0.98,0.54
		c-4.94,3.61-9.92,5.24-13.04-3.18c-0.39-1.06-0.91-2.07-1.37-3.1c-0.86-0.3-1.6-0.35-1.68,0.87c1.68,6.17,3.36,12.34,5.98,18.2
		c0.05-0.19,0.1-0.38,0.16-0.57c0.65-0.51,0.35-1.32,0.62-1.95c-0.16-1.99-1.52-3.76-1.11-6.25C15.98,54.99,19.21,54.1,22.4,52.84z"
		/>
	<path class="st32" d="M54.54,92c-2.69-0.63-5.15-1.68-7.51-3.18c-1.17-0.75-2.02-2.86-4.06-1.67c6.19,6.46,13.25,11.66,21.59,15.04
		c1.02-0.23,2.06-0.99,0.73-1.63c-1.85-0.89-3.05-2.2-4.21-3.72c-0.22-0.29-0.69-0.7-0.92-0.63C56.42,97.26,55.8,94.21,54.54,92z"/>
	<path class="st33" d="M14.43,271.82c-2.02-1.57-3.74-3-4.01-6.08c-0.22-2.42-3.64-3.72-3.61-6.88c0.03-3.44-0.47-6.88-1.1-10.32
		c-0.17,2.6-0.34,5.2-0.51,7.79c0.13,3.15,0.26,6.3,1.65,9.23c1.5,3.71,3.15,7.39,1.46,11.51c0.08,1.39-0.53,2.9,0.76,4.05
		C10.73,277.96,11.89,274.49,14.43,271.82z"/>
	<path class="st34" d="M72.15,184.58c0.52,2.32,1.84,0.86,2.42,0.3c2.91-2.84,4.69-6.39,5.41-10.34c0.34-1.86,0.03-3.85,1.56-5.35
		c-0.16-0.31-0.33-0.63-0.49-0.94c-2.21-0.09-0.8-1.98-1.37-2.94c-0.73-1.23-0.34-3.06-1.97-3.9c-0.95,1.06-1.02,2.41-0.76,3.63
		c1.28,5.84-1.08,10.75-3.73,15.63C72.56,181.87,71.67,183.04,72.15,184.58z"/>
	<path class="st35" d="M51.46,174.31c-0.75-0.99-2.04-1.18-2.7-0.52c-2.07,2.05-5.23,1.55-7.31,3.41c-1.92,1.7-4.06,1.82-6.35,0.87
		c0.06,2.9-2.13,5-2.73,7.67c0.48,2.38,1.29,0.61,1.84,0.09c4.34-4.07,9.16-7.43,14.46-10.14c0.85-0.44,1.68-0.6,2.58-0.64
		c0.29-0.1,0.42-0.24,0.39-0.43C51.6,174.42,51.54,174.31,51.46,174.31z"/>
	<path class="st36" d="M131.47,20.58c-1.01-0.05-2.11,0.21-2.91-0.67c-0.45-0.5-1.25-1.15-1.59-0.71c-2.29,2.92-4.66,0.71-6.9,0.15
		c-4.36-1.1-7.23,1.66-11.27,3.75c1.64,0.23,2.46,0.34,3.28,0.45c5.16-0.52,10.32-1.04,15.47-1.56c1.13-1.09,2.61-0.42,3.88-0.79
		c0.09-0.03,0.19-0.18,0.19-0.27C131.63,20.8,131.53,20.69,131.47,20.58z"/>
	<path class="st37" d="M70.94,144.36c0.29-1.36,0.67-2.6,2.49-1.63c-2-5.4-4.83-10.27-9.05-14.26c-0.45,0.97-1.12,1.65-2.27,1.65
		c-0.57,0.58-0.32,1.2,0.05,1.7c2.77,3.64,5.15,7.52,7.27,11.57C69.72,143.97,70.22,144.36,70.94,144.36z"/>
	<path class="st38" d="M124.65,136.36c1.61-3.15,1.62-6.03-1.68-8.1c-1.33-0.83-1.01-3.49-3.43-2.99c-1.92,1.4-0.17,3.96-1.74,5.48
		C118.93,134.04,121.67,135.34,124.65,136.36z"/>
	<path class="st39" d="M41.37,160.27c-0.8-0.01-1.15,0.41-1.62,1.08c-0.78,1.12-0.47-0.35-0.78-0.48c-1.28,1.94-1.67,4.09-1.51,6.37
		c2.8,0.84,1.89,3.95,3.47,5.66c1.65,1.79,2.54,2.51,3.39-0.39c0.19-0.64,0.16-1.74,1.25-1.38c0.35,0.11,0.41,1.08,0.86,2.43
		c0.18-1.78,0.29-2.81,0.4-3.85c-0.07-0.17-0.13-0.33-0.2-0.5c-4.14,0.53-4.13-2.53-4.63-5.25
		C41.78,162.73,41.97,161.43,41.37,160.27z"/>
	<path class="st40" d="M13.64,59.78c-0.84,0.45-0.54,1.26-0.62,1.95c1.86,4.06,3.72,8.11,8.51,9.55c2.17,0.51,3.02,2.95,5.16,3.51
		c0.68-0.54,1.85-1,1.95-1.62c0.17-1.16-1.34-0.8-1.97-1.34c-3.11-2.65-7.8-3.54-9.09-8.21C15.98,62.62,14.7,61.31,13.64,59.78z"/>
	<path class="st41" d="M61.06,279.32c-1.53-4.09-5.19-8.11-0.65-12.45c1.03-0.99,0.53-2.15,0.91-3.18c-0.08-0.7-0.16-1.4-0.24-2.1
		c-0.41,0.01-0.82,0.01-1.23,0.02c-1.94,0.35-2.11,2.09-2.54,3.47c-1.14,3.66-2.55,7.23-3.47,10.95c-0.17,1.06-0.34,2.12,0.36,3.09
		c0.47,0.08,0.94,0.16,1.41,0.25c0.1-1.15,0.21-2.3,0.31-3.47C58.91,275.3,58.58,279.38,61.06,279.32z"/>
	<path class="st42" d="M117.8,130.76c0.72,0.27,1.93,0.59,1.7-0.46c-0.38-1.74,0.46-3.36,0.03-5.01c-2.14-2.41-4.27-4.83-6.43-7.23
		c-0.69-0.77-1.66-1.02-2.39-0.28c-0.72,0.72,0.1,1.39,0.55,1.97c0.48,0.61,0.95,1.25,1.54,1.74c2.23,1.83,3.56,4.08,3.43,7.05
		C116.76,129.27,117.28,130.01,117.8,130.76z"/>
	<path class="st43" d="M54.19,279.11c0.45-0.73,0.24-1.45,0.01-2.18c-0.24-2.91,0.61-6.25-3.06-7.81c-0.24,1.04,0.24,2.29-0.88,3.08
		c0.85,2.85-0.54,5.69-0.06,8.54c0.22,1.28-0.52,3.27,1.43,3.38c1.56,0.09,1.45-1.8,1.68-2.99
		C53.45,280.38,53.46,279.6,54.19,279.11z"/>
	<path class="st44" d="M108.92,10.86c9.29-0.4,18.1,2.8,27.23,3.59C127.37,11,118.42,8.84,108.92,10.86z"/>
	<path class="st45" d="M9.14,276.58c1.96-4.24,0.64-7.8-2.3-11.02c-0.07,0.24-0.05,0.47,0.07,0.69c0.62,2.14,0.08,4.32,0.23,6.48
		C8.29,273.76,7.98,275.55,9.14,276.58z"/>
	<path class="st46" d="M52.57,124.03c0.34-1.17-0.28-2.66,1.16-3.46c0.07-2.37-1.41-3.95-2.96-5.39c-1.22-1.13-0.9,0.35-1.13,0.85
		C51.04,118.54,51.9,121.25,52.57,124.03z"/>
	<path class="st47" d="M9.14,276.58c-0.97-0.87,1.52-3.43-1.59-3.26c-0.49,0.02-0.54,0.49-0.77,0.77c1.07,2.02,0.48,4.17,0.51,6.27
		c0.02,1.45,0.27,2.59,1.76,0.77C9.09,279.61,9.11,278.1,9.14,276.58z"/>
	<path class="st33" d="M6.79,274.1c0.26-0.26,0.51-0.51,0.77-0.77c-0.39-2.34,0.99-4.84-0.64-7.07
		C6.87,268.87,6.83,271.48,6.79,274.1z"/>
	<path class="st48" d="M79.5,214.09c0.86,3.6,0.35,7.06-1.41,10.36c-0.29,0.54-0.35,1.26-0.35,1.89c0.02,1.76-0.53,4.06,1,5.01
		c1.78,1.11,2.17-1.83,3.47-2.21c4.61-1.35,3.7-5.52,4.86-8.7c1.3-3.55,1.53-6.8,0-10.42c-1.13-2.67-1.3-5.74-1.95-8.61
		c-0.25-1.11-0.47-2.5-1.95-2.5c-1.51,0.01-1.64,1.3-1.81,2.51C80.79,205.64,80.14,209.82,79.5,214.09z"/>
	<path class="st49" d="M32.95,219.98c2.49-2.66,4.43-5.75,6.04-8.95c1.02-2.02,2.3-3.35,4.26-4.2c3.4-2.6,6.06-5.88,8.51-9.34
		c2.64-3.78,5.92-7.07,8.31-11.05c1.3-2.16,2.08-4.41,2.37-6.88c0.09-0.78,0.3-1.63-0.45-2.13c-0.89-0.6-1.75-0.13-2.49,0.43
		c-2.27,1.72-3.98,4.05-6.33,5.68c-4.53,3.36-7.87,8.07-12.64,11.16c2.84-3.31,5.96-6.35,9-9.46c0.86-0.88,2.18-1.54,1.71-3.16
		c-4.37-1.65-8.29-0.31-10.81,3.73c-0.4,0.64-0.69,1.88-1.07,1.9c-5.05,0.25-6.26,5.45-9.89,7.51c-5.94,3.38-7.77,9.88-11.17,15.19
		c-2.02,3.15-2.84,6.75-4,10.24c-0.78,2.35-1.62,4.58-3.9,6.35c-2.02,1.57-2.63,4.59-2.52,7.4c-0.05,3.22-0.09,6.46,0.95,9.56
		c0.43,1.3,0.81,3.03,2.68,2.79c1.92-0.25,1.9-1.81,1.57-3.31c-0.58-2.64,0.96-4.79,1.98-6.85c2.01-4.03,2.31-8.76,6.14-12.19
		c2.07-1.85,2.29-5.78,3.32-8.77c0.43-1.26,1.07-2.84,2.52-2.19c1.19,0.54,0.28,2.02-0.12,3.1c-1.3,3.47-2.56,6.95-3.77,10.45
		c-0.46,1.34-1.03,3.3,0.49,3.78c1.58,0.5,2.54-1.26,2.98-2.79C27.61,224.43,29.04,221.23,32.95,219.98z"/>
	<path class="st0" d="M51.14,269.12c2.08,2.19,1.7,5.34,3.06,7.81c1.88-5.11,3.77-10.22,5.65-15.33c-1.98-2.8-3.2-5.79-2.57-9.33
		c0.39-2.18,0.52-4.3-2.78-2.53c-0.25,1.18-0.63,2.29-1.56,3.14C52.44,258.3,50.97,263.62,51.14,269.12z"/>
	<path class="st50" d="M51.24,182.08c-3.14,3.21-6.31,6.39-9.39,9.66c-1.06,1.13-3.48,2.61-2.24,3.8c1.58,1.53,3.08-0.9,4.32-2.06
		c3.2-2.99,6.32-6.08,9.47-9.12c1.38-1.85,2.75-3.7,4.32-5.43c2.54-2.8,5.29-4.86,9.32-4.28c1.12-0.76,1.49-1.87,1.5-3.16
		c-0.01-1.56,0.9-3.1,0.11-4.68c-0.38-0.07-0.76-0.15-1.14-0.22c-3.43,1.08-6.75,2.4-9.8,4.34c-1.35,2.49-4.07,2.43-6.25,3.37
		c-0.07,0.25-0.14,0.5-0.22,0.75C53.15,177.4,54.01,179.75,51.24,182.08z"/>
	<path class="st51" d="M67.03,174.65c-2.85-1.68-5.31-1.27-7.47,1.27c-2.26,2.66-5.83,4.36-6.17,8.43c3.22-1.53,4.79-5.17,8.22-6.67
		c0.13,6.52-3.75,10.86-7.44,15.15c-1.26,1.46-1.73,3.04-2.41,4.65c1.51-0.33,2.02-2.54,3.94-2.11c0.06-3.16,2.87-4.74,4.29-7.08
		C62.68,183.9,64.78,179.25,67.03,174.65z"/>
	<path class="st46" d="M54.87,137.03c0.3-2.82,0.59-5.65,0.89-8.47c-0.06-1.04-0.11-2.08-0.17-3.12
		C54.23,129.23,53.5,133.07,54.87,137.03z"/>
	<path class="st52" d="M57.96,145.55c-0.32-1.12-0.38-2.37-1.54-3.05c-5.14,0.16-2.01,5.19-4.23,7.06
		c-1.17,0.83,0.39-2.63-1.43-0.94c-1.48,3.07-1.14,6.7-3.13,10.26c-1.02-3.39-2.29-4.06-3.79-0.86c2.15,3.53,3.94,7.15,2.79,11.48
		c0,0,0.2,0.19,0.2,0.19c2.51-1.3,5.03-1.42,7.46,0.14c1.04,0.67,2.17,0.54,3.27,0.7c0.03-0.53,0.06-1.07,0.08-1.6
		c0.87-2.11-0.98-2.3-2.12-2.89c-4.72-2.47-5.17-3.8-2.62-8.42c0.57-1.04,1.09-2.09,1.09-3.27c0.01-2.5,0.77-4.59,3.08-5.84
		C58.39,147.8,58.4,146.76,57.96,145.55z"/>
	<path class="st53" d="M72.56,151.31c0.5,1.52-1.15,3.47,1.08,4.43c0.72,0.31,1.8,0.29,1.97-1.1
		C75.85,152.61,75.12,151.41,72.56,151.31z"/>
	<path class="st51" d="M68.64,166.81c-0.18,1.56-0.88,3.1-0.11,4.68c0.81-1.81,1.62-3.62,2.42-5.43
		C70.04,165.85,69.36,166.39,68.64,166.81z"/>
	<path class="st54" d="M46.63,169.51c0.05-0.38,0.02-0.79,0.16-1.14c1.87-4.81,1.3-6.83-2.95-10.34c-0.82,0.75-1.64,1.5-2.47,2.25
		c-1.26,3.39,0,6.54,1.3,9.48C43.74,172.18,45.15,167.88,46.63,169.51z"/>
	<path class="st54" d="M57.96,145.55c-0.29,0.65,0.3,1.65-0.73,1.98c-3.4,1.09-4.45,3.59-4.16,6.88c0.14,1.61-0.97,2.63-1.69,3.8
		c-2.15,3.5-1.18,6.57,2.65,8.31c1.32,0.6,3.17,0.48,3.6,2.43C59.63,161.17,59.37,153.37,57.96,145.55z"/>
</g>
</svg>
